<?xml version="1.0" encoding="UTF-8"?>
<svg version="1.1" xmlns="http://www.w3.org/2000/svg" width="420" height="420">
<path d="M0 0 C138.6 0 277.2 0 420 0 C420 138.6 420 277.2 420 420 C281.4 420 142.8 420 0 420 C0 281.4 0 142.8 0 0 Z " fill="#F0F0F0" transform="translate(0,0)"/>
<path d="M0 0 C23.43 0 46.86 0 71 0 C71 23.1 71 46.2 71 70 C94.1 70 117.2 70 141 70 C141 116.53 141 163.06 141 211 C117.57 211 94.14 211 70 211 C70 187.9 70 164.8 70 141 C46.9 141 23.8 141 0 141 C0 94.47 0 47.94 0 0 Z " fill="#D5AC89" transform="translate(245,105)"/>
<path d="M0 0 C23.43 0 46.86 0 71 0 C71 46.53 71 93.06 71 141 C47.9 141 24.8 141 1 141 C1 164.1 1 187.2 1 211 C-22.43 211 -45.86 211 -70 211 C-70 164.47 -70 117.94 -70 70 C-46.9 70 -23.8 70 0 70 C0 46.9 0 23.8 0 0 Z " fill="#D5AC89" transform="translate(105,105)"/>
<path d="M0 0 C23.43 0 46.86 0 71 0 C71 23.43 71 46.86 71 71 C47.57 71 24.14 71 0 71 C0 47.57 0 24.14 0 0 Z " fill="#D5AC89" transform="translate(175,315)"/>
</svg>
